<svg width="48" height="48" viewBox="0 0 48 48" fill="none" xmlns="http://www.w3.org/2000/svg">
<path d="M38.4002 7.2002H9.6002C8.27471 7.2002 7.2002 8.27471 7.2002 9.6002V32.4002C7.2002 33.7257 8.27471 34.8002 9.60019 34.8002H20.4002H38.4002C39.7257 34.8002 40.8002 33.7257 40.8002 32.4002V18.0431V9.6002C40.8002 8.27471 39.7257 7.2002 38.4002 7.2002Z" stroke="#F0591C" stroke-width="1.5" stroke-linecap="round"/>
<path d="M14.0243 14.4385H33.9996" stroke="#F0591C" stroke-width="1.5" stroke-linecap="round"/>
<path d="M14 21.1162H27" stroke="#F8B28B" stroke-width="1.5" stroke-linecap="round"/>
<path d="M32 21.1162H34" stroke="#F8B28B" stroke-width="1.5" stroke-linecap="round"/>
<path d="M13.9609 27.5547H33.9998" stroke="#F0591C" stroke-width="1.5" stroke-linecap="round"/>
<path d="M32 21.1162C32 22.4969 30.8807 23.6162 29.5 23.6162C28.1193 23.6162 27 22.4969 27 21.1162C27 19.7355 28.1193 18.6162 29.5 18.6162C30.8807 18.6162 32 19.7355 32 21.1162Z" stroke="#F8B28B" stroke-width="1.5"/>
<path d="M10.7998 42H37.1998" stroke="#F0591C" stroke-width="1.5" stroke-linecap="round"/>
<path d="M23.981 27.5545C23.981 28.8072 22.9654 29.8228 21.7127 29.8228C20.4599 29.8228 19.4443 28.8072 19.4443 27.5545C19.4443 26.3017 20.4599 25.2861 21.7127 25.2861C22.9654 25.2861 23.981 26.3017 23.981 27.5545Z" fill="white" stroke="#F0591C" stroke-width="1.5"/>
<path d="M20.4996 14.6765C20.4996 15.9293 19.484 16.9449 18.2312 16.9449C16.9785 16.9449 15.9629 15.9293 15.9629 14.6765C15.9629 13.4238 16.9785 12.4082 18.2312 12.4082C19.484 12.4082 20.4996 13.4238 20.4996 14.6765Z" fill="white" stroke="#F0591C" stroke-width="1.5"/>
</svg>
