<svg width="48" height="48" viewBox="0 0 48 48" fill="none" xmlns="http://www.w3.org/2000/svg">
<g clip-path="url(#clip0_555_115)">
<path d="M21.7407 6.56738H32.3532H21.7407ZM32.3532 7.50488H21.7407C21.2251 7.50488 20.8032 7.08301 20.8032 6.56738C20.8032 6.05176 21.2251 5.62988 21.7407 5.62988H32.3579C32.8735 5.62988 33.2954 6.05176 33.2954 6.56738C33.2954 7.08301 32.8735 7.50488 32.3532 7.50488ZM41.6251 20.208C40.8095 18.2814 39.6423 16.5471 38.1563 15.0611C36.6704 13.5752 34.936 12.408 33.0095 11.5924C31.0126 10.7486 28.8891 10.3174 26.7048 10.3174C24.5204 10.3174 22.397 10.7439 20.4001 11.5924C18.4735 12.408 16.7391 13.5752 15.2532 15.0611C14.8032 15.5111 14.3813 15.9846 13.9923 16.4768C13.5095 17.0908 13.9501 17.9908 14.7329 17.9908C15.0188 17.9908 15.286 17.8643 15.4641 17.6393C15.811 17.2033 16.1813 16.7861 16.5798 16.3877C19.2845 13.683 22.9688 12.1689 26.7938 12.1924C30.586 12.2158 34.1485 13.7018 36.8345 16.3877C39.5391 19.0924 41.0298 22.6877 41.0298 26.5127C41.0298 30.3377 39.5391 33.933 36.8345 36.6377C34.1298 39.3424 30.5345 40.833 26.7095 40.833C22.8845 40.833 19.2891 39.3424 16.5845 36.6377C16.4673 36.5205 16.3548 36.4033 16.247 36.2861C16.0688 36.0986 15.8204 35.9908 15.5626 35.9908C14.7423 35.9908 14.3157 36.9705 14.8782 37.5705C15.0048 37.7064 15.1313 37.8377 15.2626 37.9643C16.7485 39.4502 18.4829 40.6174 20.4095 41.433C22.4063 42.2768 24.5298 42.708 26.7141 42.708C28.8985 42.708 31.022 42.2814 33.0188 41.433C34.9454 40.6174 36.6798 39.4502 38.1657 37.9643C39.6516 36.4783 40.8188 34.7439 41.6345 32.8174C42.4782 30.8205 42.9095 28.6971 42.9095 26.5127C42.9095 24.3283 42.4688 22.2049 41.6251 20.208Z" fill="#F0591C"/>
<path d="M26.1094 6.84863H27.9844V10.7861H26.1094V6.84863ZM26.9812 18.6143V27.1924V18.6143Z" fill="#F0591C"/>
<path d="M26.9814 28.1299C26.4658 28.1299 26.0439 27.708 26.0439 27.1924V18.6143C26.0439 18.0986 26.4658 17.6768 26.9814 17.6768C27.4971 17.6768 27.9189 18.0986 27.9189 18.6143V27.1924C27.9189 27.708 27.4971 28.1299 26.9814 28.1299Z" fill="#F8B28B"/>
<path d="M18.333 22.5518H6.30957C5.79395 22.5518 5.37207 22.1299 5.37207 21.6143C5.37207 21.0986 5.79395 20.6768 6.30957 20.6768H18.333C18.8486 20.6768 19.2705 21.0986 19.2705 21.6143C19.2705 22.1299 18.8486 22.5518 18.333 22.5518Z" fill="#F0591C"/>
<path d="M18.333 27.9893H8.65332C8.1377 27.9893 7.71582 27.5674 7.71582 27.0518C7.71582 26.5361 8.1377 26.1143 8.65332 26.1143H18.333C18.8486 26.1143 19.2705 26.5361 19.2705 27.0518C19.2705 27.5674 18.8486 27.9893 18.333 27.9893Z" fill="#F0591C"/>
<path d="M18.4268 33.2861H11.1377C10.6221 33.2861 10.2002 32.8643 10.2002 32.3486C10.2002 31.833 10.6221 31.4111 11.1377 31.4111H18.4268C18.9424 31.4111 19.3643 31.833 19.3643 32.3486C19.3643 32.8643 18.9424 33.2861 18.4268 33.2861Z" fill="#F0591C"/>
</g>
<defs>
<clipPath id="clip0_555_115">
<rect width="48" height="48" fill="white"/>
</clipPath>
</defs>
</svg>
