<svg width="48" height="48" viewBox="0 0 48 48" fill="none" xmlns="http://www.w3.org/2000/svg">
<g clip-path="url(#clip0_523_3358)">
<path d="M35.5614 29.4162L39.1314 31.1031C40.6588 31.8248 40.6588 33.9979 39.1314 34.7197L24.8545 41.4659C24.3135 41.7215 23.6865 41.7215 23.1455 41.4659L8.86859 34.7197C7.34121 33.9979 7.3412 31.8248 8.86859 31.1031L12.4386 29.4162" stroke="#F0591C" stroke-width="1.5"/>
<path d="M35.8024 22.4187L39.1314 23.9918C40.6588 24.7135 40.6588 26.8866 39.1314 27.6083L24.8545 34.3546C24.3135 34.6102 23.6865 34.6102 23.1455 34.3546L8.86859 27.6083C7.34121 26.8866 7.3412 24.7135 8.86859 23.9918L12.1976 22.4187" stroke="#F8B28B" stroke-width="1.5"/>
<path d="M23.1455 10.4038C23.6865 10.1481 24.3135 10.1481 24.8545 10.4038L39.1314 17.15C40.6588 17.8717 40.6588 20.0448 39.1314 20.7665L24.8545 27.5128C24.3135 27.7684 23.6865 27.7684 23.1455 27.5128L8.86859 20.7665C7.34121 20.0448 7.3412 17.8717 8.86859 17.15L23.1455 10.4038Z" stroke="#F0591C" stroke-width="1.5"/>
</g>
<defs>
<clipPath id="clip0_523_3358">
<rect width="48" height="48" fill="white"/>
</clipPath>
</defs>
</svg>
