<svg width="48" height="48" viewBox="0 0 48 48" fill="none" xmlns="http://www.w3.org/2000/svg">
<path d="M20.4002 40.8002H9.60019C8.27471 40.8002 7.2002 39.7257 7.2002 38.4002V9.6002C7.2002 8.27471 8.27471 7.2002 9.6002 7.2002H38.4002C39.7257 7.2002 40.8002 8.27471 40.8002 9.6002V20.4002" stroke="#F0591C" stroke-width="1.5" stroke-linecap="round"/>
<path d="M13.208 13.748H34.8111" stroke="#F0591C" stroke-width="1.5" stroke-linecap="round"/>
<path d="M13.208 19.1553H27.7172" stroke="#F0591C" stroke-width="1.5" stroke-linecap="round"/>
<path d="M13.208 24.9834H21.9687" stroke="#F0591C" stroke-width="1.5" stroke-linecap="round"/>
<path d="M44.4003 34.2C44.4003 39.8333 39.8336 44.4 34.2003 44.4C30.1655 44.4 26.6779 42.0573 25.0234 38.6579M43.159 29.3193C41.4287 26.15 38.0656 24 34.2003 24C28.8046 24 24.3875 28.1896 24.0244 33.4931" stroke="#F0591C" stroke-width="1.5" stroke-linecap="round"/>
<path d="M43.5974 25.626V28.7227C43.5974 29.2749 43.1497 29.7227 42.5974 29.7227H39.5664" stroke="#F0591C" stroke-width="1.5" stroke-linecap="round"/>
<path d="M24.3928 42.2539L24.3928 39.1572C24.3928 38.6049 24.8405 38.1572 25.3928 38.1572L28.4238 38.1572" stroke="#F0591C" stroke-width="1.5" stroke-linecap="round"/>
<path d="M30.6123 32.2949H37.8123M30.6123 36.106H37.8123" stroke="#F8B38B" stroke-width="1.5" stroke-linecap="round"/>
</svg>
