<svg width="48" height="48" viewBox="0 0 48 48" fill="none" xmlns="http://www.w3.org/2000/svg">
<path d="M38.4002 7.2002H9.6002C8.27471 7.2002 7.2002 8.27471 7.2002 9.6002V32.4002C7.2002 33.7257 8.27471 34.8002 9.60019 34.8002H20.4002H38.4002C39.7257 34.8002 40.8002 33.7257 40.8002 32.4002V18.0431V9.6002C40.8002 8.27471 39.7257 7.2002 38.4002 7.2002Z" stroke="#F0591C" stroke-width="1.5" stroke-linecap="round"/>
<path d="M10.7998 42H37.1998" stroke="#F0591C" stroke-width="1.5" stroke-linecap="round"/>
<path d="M23.7686 12.5918L23.7686 22.407" stroke="#F8B28B" stroke-width="1.5" stroke-linecap="round"/>
<path d="M32 29.4072L32 21.3092" stroke="#F0591C" stroke-width="1.5" stroke-linecap="round"/>
<path d="M15.5361 29.4072L15.5361 21.3092" stroke="#F0591C" stroke-width="1.5" stroke-linecap="round"/>
<path d="M23.7686 27.4072L23.7686 29.4072" stroke="#F8B28B" stroke-width="1.5" stroke-linecap="round"/>
<path d="M32 16.0439L32 12.5925" stroke="#F0591C" stroke-width="1.5" stroke-linecap="round"/>
<path d="M15.5361 16.0439L15.5361 12.5925" stroke="#F0591C" stroke-width="1.5" stroke-linecap="round"/>
<path d="M23.7686 27.4072C22.3878 27.4072 21.2686 26.2879 21.2686 24.9072C21.2686 23.5265 22.3878 22.4072 23.7686 22.4072C25.1493 22.4072 26.2686 23.5265 26.2686 24.9072C26.2686 26.2879 25.1493 27.4072 23.7686 27.4072Z" stroke="#F8B28B" stroke-width="1.5"/>
<path d="M32 16.165C33.3807 16.165 34.5 17.2843 34.5 18.665C34.5 20.0458 33.3807 21.165 32 21.165C30.6193 21.165 29.5 20.0458 29.5 18.665C29.5 17.2843 30.6193 16.165 32 16.165Z" stroke="#F0591C" stroke-width="1.5"/>
<path d="M15.5361 16.165C16.9168 16.165 18.0361 17.2843 18.0361 18.665C18.0361 20.0458 16.9168 21.165 15.5361 21.165C14.1554 21.165 13.0361 20.0458 13.0361 18.665C13.0361 17.2843 14.1554 16.165 15.5361 16.165Z" stroke="#F0591C" stroke-width="1.5"/>
</svg>
