<svg width="48" height="48" viewBox="0 0 48 48" fill="none" xmlns="http://www.w3.org/2000/svg">
<path d="M38.4002 7H9.6002C8.27471 7 7.2002 8.07452 7.2002 9.4V38.6C7.2002 39.9255 8.27471 41 9.60019 41H20.4002H38.4002C39.7257 41 40.8002 39.9255 40.8002 38.6V20.3571V9.4C40.8002 8.07452 39.7257 7 38.4002 7Z" stroke="#F0591C" stroke-width="1.5" stroke-linecap="round"/>
<path d="M19 15.9941H34" stroke="#F0591C" stroke-width="1.5" stroke-linecap="round"/>
<path d="M14 24H27" stroke="#F8B28B" stroke-width="1.5" stroke-linecap="round"/>
<path d="M32 24H34" stroke="#F8B28B" stroke-width="1.5" stroke-linecap="round"/>
<path d="M18.6118 32H34" stroke="#F0591C" stroke-width="1.5" stroke-linecap="round"/>
<path d="M18.5367 31.9998C18.5367 33.2526 17.5211 34.2681 16.2683 34.2681C15.0156 34.2681 14 33.2526 14 31.9998C14 30.747 15.0156 29.7314 16.2683 29.7314C17.5211 29.7314 18.5367 30.747 18.5367 31.9998Z" stroke="#F0591C" stroke-width="1.5"/>
<path d="M32 24C32 25.3807 30.8807 26.5 29.5 26.5C28.1193 26.5 27 25.3807 27 24C27 22.6193 28.1193 21.5 29.5 21.5C30.8807 21.5 32 22.6193 32 24Z" stroke="#F8B28B" stroke-width="1.5"/>
<path d="M19 16C19 17.3807 17.8807 18.5 16.5 18.5C15.1193 18.5 14 17.3807 14 16C14 14.6193 15.1193 13.5 16.5 13.5C17.8807 13.5 19 14.6193 19 16Z" stroke="#F0591C" stroke-width="1.5"/>
</svg>
