<svg width="48" height="48" viewBox="0 0 48 48" fill="none" xmlns="http://www.w3.org/2000/svg">
<path d="M24.8356 42.6541H15.2525C13.9271 42.6541 12.8525 41.5795 12.8525 40.2541V12.5777C12.8525 11.2523 13.9271 10.1777 15.2525 10.1777H37.7233C39.0488 10.1777 40.1233 11.2523 40.1233 12.5777V23.4601" stroke="#F0591C" stroke-width="1.5" stroke-linecap="round"/>
<path d="M18.0645 21.3457H25.0645" stroke="#F0591C" stroke-width="1.5" stroke-linecap="round"/>
<path d="M18.0645 16.2197H30.0645" stroke="#F0591C" stroke-width="1.5" stroke-linecap="round"/>
<path d="M12.6196 39.7563H10.8609C9.53545 39.7563 8.46094 38.6818 8.46094 37.3563V10.9873C8.46094 8.22588 10.6995 5.9873 13.4609 5.9873H34.5932C35.9186 5.9873 36.9932 7.06182 36.9932 8.3873V9.41582" stroke="#F0591C" stroke-width="1.5" stroke-linecap="round"/>
<circle cx="35" cy="35.6074" r="9" stroke="#F8B28B" stroke-width="1.5"/>
<path d="M35.0127 28.5614V24.6543" stroke="#F8B28B" stroke-width="1.5" stroke-linecap="round" stroke-linejoin="round"/>
<path d="M35.0127 46.5614V42.6543" stroke="#F8B28B" stroke-width="1.5" stroke-linecap="round" stroke-linejoin="round"/>
<path d="M42.0646 35.6035L45.9717 35.6035" stroke="#F8B28B" stroke-width="1.5" stroke-linecap="round" stroke-linejoin="round"/>
<path d="M24.0646 35.6035L27.9717 35.6035" stroke="#F8B28B" stroke-width="1.5" stroke-linecap="round" stroke-linejoin="round"/>
</svg>
