<svg width="48" height="48" viewBox="0 0 48 48" fill="none" xmlns="http://www.w3.org/2000/svg">
<path d="M41.6 7H6.4C5.07452 7 4 8.07452 4 9.4V13.5156C4 14.8411 5.07452 15.9156 6.4 15.9156H19.7143H41.6C42.9255 15.9156 44 14.8411 44 13.5156V10.5026V9.4C44 8.07452 42.9255 7 41.6 7Z" stroke="#F0591C" stroke-width="1.5" stroke-linecap="round"/>
<path d="M23.9512 42.1551H9.60019C8.27471 42.1551 7.2002 41.0806 7.2002 39.7551V15.916H40.8002V23.9412" stroke="#F0591C" stroke-width="1.5" stroke-linecap="round"/>
<path d="M19.5298 21.0576H28.4702" stroke="#F0591C" stroke-width="1.5" stroke-linecap="round" stroke-linejoin="round"/>
<circle cx="34.428" cy="34.9346" r="3.35648" stroke="#F8B28B" stroke-width="1.5"/>
<path d="M41.0498 35.7776V33.851L43.457 32.407L42.4937 30.2401L39.8442 30.9631L38.4002 29.5171L39.1232 26.8695L36.9563 25.9062L35.5103 28.3135H33.5857L32.1398 25.9062L29.9729 26.8695L30.4555 29.5171L29.0096 30.9631L26.362 30.2401L25.3987 32.407L27.8059 33.851V35.7776L25.3987 37.2235L26.362 39.3904L29.0096 38.9078L30.4555 40.3518L29.7325 43.0013L31.8995 43.9646L33.3434 41.5573H35.27L36.7159 43.9646L38.8828 43.0013L38.1599 40.3518L39.6039 38.9078L42.2534 39.6308L43.2167 37.4638L41.0498 35.7776Z" stroke="#F8B28B" stroke-width="1.5" stroke-linejoin="round"/>
</svg>
