<svg width="48" height="48" viewBox="0 0 48 48" fill="none" xmlns="http://www.w3.org/2000/svg">
<path d="M25.0002 41H9.60019C8.27471 41 7.2002 39.9255 7.2002 38.6V9.4C7.2002 8.07452 8.27471 7 9.6002 7H30.5291C31.152 7 31.7505 7.24218 32.1981 7.67536L40.0692 15.2926C40.5364 15.7447 40.8002 16.3671 40.8002 17.0172V27" stroke="#F0591C" stroke-width="1.5" stroke-linecap="round"/>
<path d="M31 7V15C31 16.1046 31.8954 17 33 17H40.5" stroke="#F0591C" stroke-width="1.5"/>
<path d="M13 14.0029H20" stroke="#F0591C" stroke-width="1.5" stroke-linecap="round"/>
<path d="M13 19.0029H25" stroke="#F0591C" stroke-width="1.5" stroke-linecap="round"/>
<path d="M13 24H25" stroke="#F0591C" stroke-width="1.5" stroke-linecap="round"/>
<path d="M35 28.2887C35.3094 28.11 35.6906 28.11 36 28.2887L42.3612 31.9613C42.6706 32.14 42.8612 32.4701 42.8612 32.8274V40.1726C42.8612 40.5299 42.6706 40.86 42.3612 41.0387L36 44.7113C35.6906 44.89 35.3094 44.89 35 44.7113L28.6388 41.0387C28.3294 40.86 28.1388 40.5299 28.1388 40.1726V32.8274C28.1388 32.4701 28.3294 32.14 28.6388 31.9613L35 28.2887Z" stroke="#F8B28B" stroke-width="1.5"/>
<circle cx="35.3565" cy="36.3565" r="3.35648" stroke="#F8B28B" stroke-width="1.5"/>
</svg>
