<svg width="48" height="48" viewBox="0 0 48 48" fill="none" xmlns="http://www.w3.org/2000/svg">
<path d="M23.5418 40.224L9.58628 40.224C8.26079 40.224 7.18628 39.1495 7.18628 37.824L7.18628 19.824L7.18628 9.02402C7.18628 7.69854 8.2608 6.62402 9.58628 6.62402L27.3949 6.62402C28.0821 6.62402 28.7362 6.91853 29.1918 7.43296L36.7044 15.9172C37.0931 16.356 37.3076 16.922 37.3076 17.5082L37.3076 22.2644" stroke="#F0591C" stroke-width="1.5" stroke-linecap="round"/>
<path d="M36.8398 16.5337L33.4522 16.5337L30.6166 16.5337C29.2912 16.5337 28.2166 15.4592 28.2166 14.1337L28.2166 10.7306L28.2166 6.97559" stroke="#F0591C" stroke-width="1.5" stroke-linecap="round"/>
<path d="M13.5645 16.9082H23.4477" stroke="#F0591C" stroke-width="1.5" stroke-linecap="round"/>
<path d="M13.5645 22.7832H23.4653" stroke="#F0591C" stroke-width="1.5" stroke-linecap="round"/>
<path d="M13.5645 28.8408H23.4653" stroke="#F0591C" stroke-width="1.5" stroke-linecap="round"/>
<path d="M28.0376 36.5132L40.2917 24.2591L42.8131 26.7805L30.559 39.0346L26.956 40.1162L28.0376 36.5132Z" stroke="#F8B28B" stroke-width="1.5" stroke-linejoin="round"/>
</svg>
