<svg width="48" height="48" viewBox="0 0 48 48" fill="none" xmlns="http://www.w3.org/2000/svg">
<path d="M10.3296 6.1543C10.6999 5.5945 11.3264 5.25781 11.9976 5.25781H36.0016C36.6728 5.25781 37.2993 5.5945 37.6696 6.15429L42.3381 13.2109C42.5546 13.5382 42.6701 13.9219 42.6701 14.3144V38.8128C42.6701 39.9174 41.7747 40.8128 40.6701 40.8128H7.3291C6.22453 40.8128 5.3291 39.9174 5.3291 38.8128V14.3144C5.3291 13.9219 5.44456 13.5382 5.66109 13.2109L10.3296 6.1543Z" stroke="#F0591C" stroke-width="1.5"/>
<path d="M5.72852 14.0254H42.1559" stroke="#F0591C" stroke-width="1.5" stroke-linecap="round" stroke-linejoin="round"/>
<path d="M12.9443 24.8685H35.0561L29.301 21.2012" stroke="#F0591C" stroke-width="1.5" stroke-linecap="round" stroke-linejoin="round"/>
<path d="M35.0557 29.6823L12.9439 29.6823L18.699 33.3496" stroke="#F8B38B" stroke-width="1.5" stroke-linecap="round" stroke-linejoin="round"/>
</svg>
