<svg width="48" height="48" viewBox="0 0 48 48" fill="none" xmlns="http://www.w3.org/2000/svg">
<path d="M20.4 40.8002H9.59995C8.27447 40.8002 7.19995 39.7257 7.19995 38.4002V9.6002C7.19995 8.27471 8.27447 7.2002 9.59995 7.2002H38.3999C39.7254 7.2002 40.7999 8.27471 40.7999 9.6002V20.4002" stroke="#F0591C" stroke-width="1.5" stroke-linecap="round"/>
<path d="M15.6 14.4004H28.8" stroke="#F8B38B" stroke-width="1.5" stroke-linecap="round"/>
<path d="M15.6 20.4004H22.8" stroke="#F8B38B" stroke-width="1.5" stroke-linecap="round"/>
<circle cx="34.0002" cy="34.0002" r="4.08911" stroke="#F0591C" stroke-width="1.5"/>
<path d="M42.0673 35.026V32.6789L45 30.9197L43.8264 28.2798L40.5986 29.1606L38.8394 27.3991L39.7202 24.1736L37.0803 23L35.3188 25.9327H32.974L31.2125 23L28.5726 24.1736L29.1606 27.3991L27.3991 29.1606L24.1736 28.2798L23 30.9197L25.9327 32.6789V35.026L23 36.7875L24.1736 39.4274L27.3991 38.8394L29.1606 40.5986L28.2798 43.8264L30.9197 45L32.6789 42.0673H35.026L36.7875 45L39.4274 43.8264L38.5466 40.5986L40.3058 38.8394L43.5336 39.7202L44.7072 37.0803L42.0673 35.026Z" stroke="#F0591C" stroke-width="1.5" stroke-linejoin="round"/>
</svg>
