<svg width="48" height="48" viewBox="0 0 48 48" fill="none" xmlns="http://www.w3.org/2000/svg">
<path d="M10.5225 7.625H18.3754M41.9342 36.4948H33.3614M22.2496 7.625L34.6598 7.625C38.6773 7.625 41.9342 10.8818 41.9342 14.8993C41.9342 18.9168 38.6773 22.1737 34.6598 22.1737H17.683C13.7284 22.1737 10.5225 25.3796 10.5225 29.3342C10.5225 33.2889 13.7284 36.4948 17.683 36.4948H29.515" stroke="#F8B28B" stroke-width="1.5" stroke-linecap="round"/>
<path d="M6.06641 11.5059H13.9193M37.4781 40.3757H28.9054M17.7935 11.5059L30.2038 11.5059C34.2213 11.5059 37.4781 14.7627 37.4781 18.7802C37.4781 22.7977 34.2213 26.0545 30.2038 26.0545H13.227C9.2723 26.0545 6.06641 29.2604 6.06641 33.2151C6.06641 37.1698 9.27231 40.3757 13.227 40.3757H25.059" stroke="#F0591C" stroke-width="1.5" stroke-linecap="round"/>
</svg>
