<svg width="48" height="48" viewBox="0 0 48 48" fill="none" xmlns="http://www.w3.org/2000/svg">
<path d="M38.3999 7.2002H9.59995C8.27447 7.2002 7.19995 8.27471 7.19995 9.6002V32.4002C7.19995 33.7257 8.27447 34.8002 9.59995 34.8002H20.4H38.4C39.7254 34.8002 40.7999 33.7257 40.7999 32.4002V18.0431V9.6002C40.7999 8.27471 39.7254 7.2002 38.3999 7.2002Z" stroke="#F0591C" stroke-width="1.5" stroke-linecap="round"/>
<path d="M10.8 42H37.2" stroke="#F0591C" stroke-width="1.5" stroke-linecap="round"/>
<path d="M33.081 20.4007C33.4004 20.7443 33.4004 21.2567 33.081 21.6003C31.7418 23.0404 28.0071 26.5752 23.6094 26.5752C19.2116 26.5752 15.4769 23.0404 14.1378 21.6003C13.8183 21.2567 13.8183 20.7443 14.1378 20.4007C15.4769 18.9605 19.2116 15.4258 23.6094 15.4258C28.0071 15.4258 31.7418 18.9605 33.081 20.4007Z" stroke="#F8B28B" stroke-width="1.5"/>
<circle cx="23.6094" cy="21" r="2.25" stroke="#F8B28B" stroke-width="1.5"/>
</svg>
