<svg width="48" height="48" viewBox="0 0 48 48" fill="none" xmlns="http://www.w3.org/2000/svg">
<path d="M16.4162 40.8002H9.6002C8.27471 40.8002 7.2002 39.7257 7.2002 38.4002V9.60019C7.2002 8.27471 8.27471 7.2002 9.6002 7.2002H38.4002C39.7257 7.2002 40.8002 8.27094 40.8002 9.59643C40.8002 13.9379 40.8002 23.2377 40.8002 29.5399" stroke="#F0591C" stroke-width="1.5" stroke-linecap="round"/>
<path d="M31.3184 27.8898V34.2489" stroke="#F8B28B" stroke-width="1.5" stroke-linecap="round" stroke-linejoin="round"/>
<path d="M31.3184 36.543V37.6834" stroke="#F8B28B" stroke-width="1.5" stroke-linecap="round" stroke-linejoin="round"/>
<path d="M13.0547 24H21.6574" stroke="#F0591C" stroke-width="1.5" stroke-linecap="round"/>
<path d="M13.0547 18.875H25.7554" stroke="#F8B28B" stroke-width="1.5" stroke-linecap="round"/>
<path d="M13.0547 13.665H34.9189" stroke="#F0591C" stroke-width="1.5" stroke-linecap="round"/>
<path d="M30.4525 22.4854C30.8374 21.8187 31.7996 21.8187 32.1845 22.4854L41.9392 39.381C42.3241 40.0477 41.843 40.881 41.0732 40.881H21.5637C20.7939 40.881 20.3128 40.0477 20.6977 39.381L30.4525 22.4854Z" stroke="#F0591C" stroke-width="1.5"/>
</svg>
